Coordinates
version=1
nRows=11
nColumns=63
inDegrees=yes

Units are S.I. units (second, meters, Newtons, ...)
If the header above contains a line with 'inDegrees', this indicates whether rotational values are in degrees (yes) or radians (no).

endheader
time	pelvis_tilt	pelvis_list	pelvis_rotation	pelvis_tx	pelvis_ty	pelvis_tz	hip_flexion_r	hip_adduction_r	hip_rotation_r	knee_angle_r	knee_angle_r_beta	ankle_angle_r	subtalar_angle_r	mtp_angle_r	hip_flexion_l	hip_adduction_l	hip_rotation_l	knee_angle_l	knee_angle_l_beta	ankle_angle_l	subtalar_angle_l	mtp_angle_l	L5_S1_Flex_Ext	L5_S1_Lat_Bending	L5_S1_axial_rotation	L4_L5_Flex_Ext	L4_L5_Lat_Bending	L4_L5_axial_rotation	L3_L4_Flex_Ext	L3_L4_Lat_Bending	L3_L4_axial_rotation	L2_L3_Flex_Ext	L2_L3_Lat_Bending	L2_L3_axial_rotation	L1_L2_Flex_Ext	L1_L2_Lat_Bending	L1_L2_axial_rotation	L1_T12_Flex_Ext	L1_T12_Lat_Bending	L1_T12_axial_rotation	Abs_r3	Abs_r2	Abs_r1	Abs_t1	Abs_t2	neck_flexion	neck_bending	neck_rotation	arm_flex_r	arm_add_r	arm_rot_r	elbow_flex_r	pro_sup_r	wrist_flex_r	wrist_dev_r	arm_flex_l	arm_add_l	arm_rot_l	elbow_flex_l	pro_sup_l	wrist_flex_l	wrist_dev_l
2.466667	1.290122	-5.438165	99.693004	0.038661	0.988656	0.717871	4.255048	-0.093785	7.781564	3.007994	0.052499	22.049119	-13.901544	0.000000	6.446561	0.233518	4.306168	2.576992	0.044977	24.301593	0.405741	0.000000	-0.335928	-0.969796	-1.690114	-0.623852	-1.289829	-1.795746	-0.551896	-2.357962	-1.795746	-0.383932	-2.357962	-1.478850	-0.311943	-1.977608	-1.373217	-0.191949	-1.502214	-1.267585	-2.399500	-10.970526	-9.399906	0.000000	0.000000	24.201825	11.819398	-20.307433	29.244892	-6.152647	0.518587	146.030128	89.020193	18.694937	12.475177	11.669324	-14.352959	134.737453	3.303056	1.756261	-3.476963	-14.392386
2.483333	1.395774	-5.413272	99.991321	0.037828	0.988121	0.718475	4.252407	-0.030098	7.494788	3.009277	0.052522	22.203617	-13.859306	0.000000	6.533933	0.186527	4.561685	2.680985	0.046792	24.400393	0.407794	0.000000	-0.328094	-0.973078	-1.758521	-0.609303	-1.294193	-1.868429	-0.539025	-2.365941	-1.868429	-0.374978	-2.365941	-1.538706	-0.304668	-1.984300	-1.428798	-0.187473	-1.507297	-1.318891	-2.343541	-11.007650	-9.780367	0.000000	0.000000	24.455613	12.129072	-19.867512	29.664096	-5.483698	0.287713	145.762651	88.989445	20.935691	11.425055	11.328784	-14.427102	136.032554	2.882784	1.756777	-3.613425	-13.786405
2.500000	1.514486	-5.386126	100.271994	0.036971	0.987602	0.718965	4.243894	0.044598	7.199343	2.997099	0.052309	22.396843	-13.751338	0.000000	6.603180	0.127826	4.927808	2.773561	0.048408	24.495255	0.291469	0.000000	-0.318139	-0.972654	-1.825192	-0.590816	-1.293630	-1.939267	-0.522671	-2.364911	-1.939267	-0.363601	-2.364911	-1.597043	-0.295424	-1.983436	-1.482969	-0.181785	-1.506641	-1.368894	-2.272436	-11.002856	-10.151172	0.000000	0.000000	24.624666	12.459168	-19.282589	30.149400	-4.799104	0.201857	145.525596	88.911207	22.961496	10.048695	10.990912	-14.486088	137.441594	2.498564	1.790934	-3.857978	-13.160158
2.516667	1.647780	-5.380239	100.534457	0.036125	0.987114	0.719359	4.258233	0.130459	6.871331	2.977082	0.051960	22.628543	-13.539333	0.000000	6.688347	0.054688	5.280442	2.867262	0.050043	24.607994	0.216204	0.000000	-0.305505	-0.970755	-1.875936	-0.567354	-1.291104	-1.993182	-0.501915	-2.360294	-1.993182	-0.349162	-2.360294	-1.641444	-0.283692	-1.979564	-1.524198	-0.174566	-1.503700	-1.406952	-2.182195	-10.981377	-10.433393	0.000000	0.000000	24.758973	12.782477	-18.807110	30.620532	-4.135864	0.093028	145.400801	88.747051	24.931029	8.550860	10.699573	-14.519562	139.052478	2.126601	1.841453	-4.160499	-12.537352
2.533333	1.787999	-5.398801	100.775148	0.035305	0.986678	0.719651	4.293188	0.220500	6.562397	2.942280	0.051352	22.852918	-13.303253	0.000000	6.787514	-0.023585	5.661494	2.950624	0.051498	24.713286	0.116043	0.000000	-0.290429	-0.968002	-1.908073	-0.539356	-1.287443	-2.027327	-0.477146	-2.353600	-2.027327	-0.331931	-2.353600	-1.669564	-0.269692	-1.973950	-1.550309	-0.165951	-1.499435	-1.431055	-2.074506	-10.950234	-10.612128	0.000000	0.000000	24.868148	13.087622	-18.418277	31.037279	-3.529801	-0.025058	145.387196	88.488742	26.740262	7.015123	10.462110	-14.528891	140.698808	1.792210	1.885513	-4.474237	-11.955897
2.550000	1.930532	-5.445581	101.020057	0.034493	0.986302	0.719878	4.352791	0.306387	6.205945	2.900046	0.050615	23.079235	-12.991910	0.000000	6.914675	-0.101371	6.037667	3.033282	0.052941	24.815088	0.065546	0.000000	-0.273861	-0.964991	-1.924488	-0.508587	-1.283438	-2.044769	-0.449926	-2.346279	-2.044769	-0.312995	-2.346279	-1.683927	-0.254307	-1.967809	-1.563647	-0.156484	-1.494771	-1.443366	-1.956159	-10.916169	-10.703426	0.000000	0.000000	24.972506	13.361514	-18.130689	31.376537	-3.009713	-0.143291	145.469962	88.109959	28.264027	5.525854	10.290841	-14.523918	142.218579	1.530998	1.934766	-4.778038	-11.445061
2.566667	2.075256	-5.512594	101.283504	0.033678	0.985998	0.720061	4.428109	0.387895	5.768559	2.852698	0.049789	23.306590	-12.585354	0.000000	7.067127	-0.177958	6.390472	3.119895	0.054452	24.910860	0.097728	0.000000	-0.257111	-0.961586	-1.924643	-0.477481	-1.278909	-2.044934	-0.422407	-2.337999	-2.044934	-0.293852	-2.337999	-1.684063	-0.238753	-1.960865	-1.563773	-0.146913	-1.489496	-1.443482	-1.836517	-10.877648	-10.704289	0.000000	0.000000	25.041699	13.553106	-17.997407	31.605885	-2.595924	-0.281838	145.648353	87.682138	29.424848	4.168368	10.194308	-14.503409	143.577607	1.342812	1.976536	-5.028633	-11.010939
2.583333	2.216065	-5.591924	101.573801	0.032858	0.985769	0.720233	4.508654	0.461802	5.332143	2.799209	0.048855	23.499782	-12.223142	0.000000	7.238593	-0.246369	6.760394	3.210821	0.056039	24.984425	0.152703	0.000000	-0.241600	-0.957706	-1.917511	-0.448675	-1.273749	-2.037356	-0.396925	-2.328567	-2.037356	-0.276125	-2.328567	-1.677822	-0.224350	-1.952954	-1.557978	-0.138050	-1.483487	-1.438134	-1.725725	-10.833763	-10.664623	0.000000	0.000000	25.091906	13.688082	-17.939037	31.727646	-2.288217	-0.374965	145.889939	87.238086	30.090314	2.969390	10.152955	-14.478426	144.685108	1.226994	2.012088	-5.213104	-10.656034
2.600000	2.346213	-5.675009	101.893851	0.032033	0.985615	0.720428	4.590316	0.521413	4.841385	2.754058	0.048067	23.685507	-11.833530	0.000000	7.423749	-0.300750	7.123611	3.311277	0.057793	25.042659	0.250193	0.000000	-0.229015	-0.953653	-1.908745	-0.425303	-1.268358	-2.028041	-0.376248	-2.318711	-2.028041	-0.261741	-2.318711	-1.670152	-0.212663	-1.944688	-1.550855	-0.130859	-1.477208	-1.431559	-1.635828	-10.787908	-10.615866	0.000000	0.000000	25.124978	13.755386	-17.939889	31.742163	-2.087146	-0.384058	146.171962	86.801546	30.176318	1.925431	10.155431	-14.459844	145.480730	1.188322	2.048601	-5.337885	-10.359466
2.616667	2.466451	-5.764255	102.228252	0.031227	0.985516	0.720646	4.672663	0.567177	4.326917	2.709509	0.047290	23.850135	-11.441180	0.000000	7.617088	-0.344425	7.452726	3.405859	0.059443	25.092175	0.402315	0.000000	-0.218277	-0.949084	-1.900227	-0.405362	-1.262282	-2.018991	-0.358607	-2.307604	-2.018991	-0.249469	-2.307604	-1.662699	-0.202692	-1.935373	-1.543934	-0.124724	-1.470132	-1.425170	-1.559131	-10.736233	-10.568492	0.000000	0.000000	25.156315	13.785958	-17.950792	31.660829	-1.992545	-0.305067	146.490831	86.382594	29.745519	1.116621	10.183595	-14.452281	146.032422	1.206226	2.067069	-5.369248	-10.109285
2.633333	2.596193	-5.854115	102.616647	0.030365	0.985448	0.720929	4.756726	0.616402	3.757922	2.672635	0.046646	23.988914	-11.073692	0.000000	7.834345	-0.388571	7.767962	3.517261	0.061388	25.158202	0.614630	0.000000	-0.210576	-0.941716	-1.903299	-0.391061	-1.252482	-2.022255	-0.345956	-2.289688	-2.022255	-0.240668	-2.289688	-1.665386	-0.195541	-1.920347	-1.546430	-0.120323	-1.458718	-1.427474	-1.504126	-10.652878	-10.585577	0.000000	0.000000	25.216894	13.790028	-17.990279	31.499728	-2.013846	-0.119532	146.833281	86.082332	28.757180	0.432252	10.222119	-14.451995	146.264496	1.285383	2.080189	-5.362792	-9.883612
